<mxfile host="app.diagrams.net" agent="Mozilla/5.0 (Windows NT 10.0; Win64; x64) AppleWebKit/537.36 (KHTML, like Gecko) Chrome/138.0.0.0 Safari/537.36" version="28.0.3">
  <diagram name="Page-1" id="ZIh4SMEQNaXs94f0UvX8">
    <mxGraphModel dx="859" dy="471" grid="1" gridSize="10" guides="1" tooltips="1" connect="1" arrows="1" fold="1" page="1" pageScale="1" pageWidth="827" pageHeight="1169" math="0" shadow="0">
      <root>
        <mxCell id="0" />
        <mxCell id="1" parent="0" />
        <mxCell id="k3qN99GsgGHmv4in2MPK-1" value="ทบทวนสัญลักษณ์" style="swimlane;fontFamily=Sarabun;fontSource=https%3A%2F%2Ffonts.googleapis.com%2Fcss%3Ffamily%3DSarabun;" vertex="1" parent="1">
          <mxGeometry x="40" y="40" width="640" height="290" as="geometry" />
        </mxCell>
        <mxCell id="k3qN99GsgGHmv4in2MPK-2" value="&lt;font data-font-src=&quot;https://fonts.googleapis.com/css?family=Sarabun&quot; face=&quot;Sarabun&quot;&gt;เริ่มต้น&lt;/font&gt;" style="ellipse;whiteSpace=wrap;html=1;" vertex="1" parent="k3qN99GsgGHmv4in2MPK-1">
          <mxGeometry x="20" y="40" width="130" height="30" as="geometry" />
        </mxCell>
        <mxCell id="k3qN99GsgGHmv4in2MPK-3" value="" style="endArrow=classic;html=1;rounded=0;" edge="1" parent="k3qN99GsgGHmv4in2MPK-1">
          <mxGeometry width="50" height="50" relative="1" as="geometry">
            <mxPoint x="84.5" y="70" as="sourcePoint" />
            <mxPoint x="84.5" y="120" as="targetPoint" />
          </mxGeometry>
        </mxCell>
        <mxCell id="k3qN99GsgGHmv4in2MPK-4" value="&lt;font face=&quot;Sarabun&quot;&gt;สิ้นสุด&lt;/font&gt;" style="ellipse;whiteSpace=wrap;html=1;" vertex="1" parent="k3qN99GsgGHmv4in2MPK-1">
          <mxGeometry x="150" y="90" width="130" height="30" as="geometry" />
        </mxCell>
        <mxCell id="k3qN99GsgGHmv4in2MPK-5" value="" style="endArrow=classic;html=1;rounded=0;" edge="1" parent="k3qN99GsgGHmv4in2MPK-1">
          <mxGeometry width="50" height="50" relative="1" as="geometry">
            <mxPoint x="214.5" y="40" as="sourcePoint" />
            <mxPoint x="214.5" y="90" as="targetPoint" />
          </mxGeometry>
        </mxCell>
        <mxCell id="k3qN99GsgGHmv4in2MPK-6" value="กระบวนการ" style="rounded=0;whiteSpace=wrap;html=1;fontFamily=Sarabun;fontSource=https%3A%2F%2Ffonts.googleapis.com%2Fcss%3Ffamily%3DSarabun;" vertex="1" parent="k3qN99GsgGHmv4in2MPK-1">
          <mxGeometry x="320" y="70" width="120" height="30" as="geometry" />
        </mxCell>
        <mxCell id="k3qN99GsgGHmv4in2MPK-7" value="" style="endArrow=classic;html=1;rounded=0;" edge="1" parent="k3qN99GsgGHmv4in2MPK-1">
          <mxGeometry width="50" height="50" relative="1" as="geometry">
            <mxPoint x="379" y="40" as="sourcePoint" />
            <mxPoint x="379.5" y="70" as="targetPoint" />
          </mxGeometry>
        </mxCell>
        <mxCell id="k3qN99GsgGHmv4in2MPK-8" value="" style="endArrow=classic;html=1;rounded=0;" edge="1" parent="k3qN99GsgGHmv4in2MPK-1">
          <mxGeometry width="50" height="50" relative="1" as="geometry">
            <mxPoint x="379.75" y="100" as="sourcePoint" />
            <mxPoint x="380.25" y="130" as="targetPoint" />
          </mxGeometry>
        </mxCell>
        <mxCell id="k3qN99GsgGHmv4in2MPK-9" value="ประโยคเงื่อนไข" style="rhombus;whiteSpace=wrap;html=1;fontFamily=Sarabun;fontSource=https%3A%2F%2Ffonts.googleapis.com%2Fcss%3Ffamily%3DSarabun;" vertex="1" parent="k3qN99GsgGHmv4in2MPK-1">
          <mxGeometry x="490" y="60" width="100" height="60" as="geometry" />
        </mxCell>
        <mxCell id="k3qN99GsgGHmv4in2MPK-10" value="" style="endArrow=classic;html=1;rounded=0;" edge="1" parent="k3qN99GsgGHmv4in2MPK-1">
          <mxGeometry width="50" height="50" relative="1" as="geometry">
            <mxPoint x="539.71" y="30" as="sourcePoint" />
            <mxPoint x="540.21" y="60" as="targetPoint" />
          </mxGeometry>
        </mxCell>
        <mxCell id="k3qN99GsgGHmv4in2MPK-11" value="" style="endArrow=classic;html=1;rounded=0;" edge="1" parent="k3qN99GsgGHmv4in2MPK-1">
          <mxGeometry width="50" height="50" relative="1" as="geometry">
            <mxPoint x="539.71" y="120" as="sourcePoint" />
            <mxPoint x="540" y="175" as="targetPoint" />
          </mxGeometry>
        </mxCell>
        <mxCell id="k3qN99GsgGHmv4in2MPK-12" value="จริง" style="edgeLabel;html=1;align=center;verticalAlign=middle;resizable=0;points=[];fontFamily=Sarabun;fontSource=https%3A%2F%2Ffonts.googleapis.com%2Fcss%3Ffamily%3DSarabun;" vertex="1" connectable="0" parent="k3qN99GsgGHmv4in2MPK-11">
          <mxGeometry x="-0.4142" y="-1" relative="1" as="geometry">
            <mxPoint as="offset" />
          </mxGeometry>
        </mxCell>
        <mxCell id="k3qN99GsgGHmv4in2MPK-13" value="" style="endArrow=classic;html=1;rounded=0;exitX=1;exitY=0.5;exitDx=0;exitDy=0;" edge="1" parent="k3qN99GsgGHmv4in2MPK-1" source="k3qN99GsgGHmv4in2MPK-9">
          <mxGeometry width="50" height="50" relative="1" as="geometry">
            <mxPoint x="620" y="95" as="sourcePoint" />
            <mxPoint x="610" y="175" as="targetPoint" />
            <Array as="points">
              <mxPoint x="610" y="90" />
            </Array>
          </mxGeometry>
        </mxCell>
        <mxCell id="k3qN99GsgGHmv4in2MPK-14" value="&lt;font data-font-src=&quot;https://fonts.googleapis.com/css?family=Sarabun&quot; face=&quot;Sarabun&quot;&gt;เท็จ&lt;/font&gt;" style="edgeLabel;html=1;align=center;verticalAlign=middle;resizable=0;points=[];" vertex="1" connectable="0" parent="k3qN99GsgGHmv4in2MPK-13">
          <mxGeometry x="-0.0019" y="-2" relative="1" as="geometry">
            <mxPoint as="offset" />
          </mxGeometry>
        </mxCell>
        <mxCell id="k3qN99GsgGHmv4in2MPK-15" value="&lt;font data-font-src=&quot;https://fonts.googleapis.com/css?family=Sarabun&quot; face=&quot;Sarabun&quot;&gt;ฟังก์ชัน/โมดูล&lt;/font&gt;" style="shape=process;whiteSpace=wrap;html=1;backgroundOutline=1;" vertex="1" parent="k3qN99GsgGHmv4in2MPK-1">
          <mxGeometry x="25" y="180" width="120" height="30" as="geometry" />
        </mxCell>
        <mxCell id="k3qN99GsgGHmv4in2MPK-16" value="" style="endArrow=classic;html=1;rounded=0;" edge="1" parent="k3qN99GsgGHmv4in2MPK-1">
          <mxGeometry width="50" height="50" relative="1" as="geometry">
            <mxPoint x="84.70999999999998" y="150" as="sourcePoint" />
            <mxPoint x="85.20999999999998" y="180" as="targetPoint" />
          </mxGeometry>
        </mxCell>
        <mxCell id="k3qN99GsgGHmv4in2MPK-17" value="" style="endArrow=classic;html=1;rounded=0;" edge="1" parent="k3qN99GsgGHmv4in2MPK-1">
          <mxGeometry width="50" height="50" relative="1" as="geometry">
            <mxPoint x="84.70999999999998" y="210" as="sourcePoint" />
            <mxPoint x="85.20999999999998" y="240" as="targetPoint" />
          </mxGeometry>
        </mxCell>
        <mxCell id="k3qN99GsgGHmv4in2MPK-18" value="" style="strokeWidth=2;html=1;shape=mxgraph.flowchart.start_2;whiteSpace=wrap;" vertex="1" parent="k3qN99GsgGHmv4in2MPK-1">
          <mxGeometry x="205" y="185" width="20" height="20" as="geometry" />
        </mxCell>
        <mxCell id="k3qN99GsgGHmv4in2MPK-19" value="" style="endArrow=classic;html=1;rounded=0;" edge="1" parent="k3qN99GsgGHmv4in2MPK-1">
          <mxGeometry width="50" height="50" relative="1" as="geometry">
            <mxPoint x="214.70999999999998" y="155" as="sourcePoint" />
            <mxPoint x="215.20999999999998" y="185" as="targetPoint" />
          </mxGeometry>
        </mxCell>
        <mxCell id="k3qN99GsgGHmv4in2MPK-20" value="" style="endArrow=classic;html=1;rounded=0;entryX=0;entryY=0.5;entryDx=0;entryDy=0;entryPerimeter=0;" edge="1" parent="k3qN99GsgGHmv4in2MPK-1" target="k3qN99GsgGHmv4in2MPK-18">
          <mxGeometry width="50" height="50" relative="1" as="geometry">
            <mxPoint x="189.99999999999997" y="155" as="sourcePoint" />
            <mxPoint x="190.49999999999997" y="185" as="targetPoint" />
            <Array as="points">
              <mxPoint x="190" y="180" />
            </Array>
          </mxGeometry>
        </mxCell>
        <mxCell id="k3qN99GsgGHmv4in2MPK-21" value="" style="endArrow=classic;html=1;rounded=0;entryX=1;entryY=0.5;entryDx=0;entryDy=0;entryPerimeter=0;" edge="1" parent="k3qN99GsgGHmv4in2MPK-1" target="k3qN99GsgGHmv4in2MPK-18">
          <mxGeometry width="50" height="50" relative="1" as="geometry">
            <mxPoint x="239.99999999999997" y="155" as="sourcePoint" />
            <mxPoint x="240.49999999999997" y="185" as="targetPoint" />
            <Array as="points">
              <mxPoint x="240" y="180" />
            </Array>
          </mxGeometry>
        </mxCell>
        <mxCell id="k3qN99GsgGHmv4in2MPK-22" value="" style="endArrow=classic;html=1;rounded=0;" edge="1" parent="k3qN99GsgGHmv4in2MPK-1">
          <mxGeometry width="50" height="50" relative="1" as="geometry">
            <mxPoint x="214.70999999999998" y="205" as="sourcePoint" />
            <mxPoint x="215.20999999999998" y="235" as="targetPoint" />
          </mxGeometry>
        </mxCell>
        <mxCell id="k3qN99GsgGHmv4in2MPK-23" value="&lt;font data-font-src=&quot;https://fonts.googleapis.com/css?family=Sarabun&quot; face=&quot;Sarabun&quot;&gt;ตัวเชื่อม&lt;/font&gt;" style="text;html=1;align=center;verticalAlign=middle;resizable=0;points=[];autosize=1;strokeColor=none;fillColor=none;" vertex="1" parent="k3qN99GsgGHmv4in2MPK-1">
          <mxGeometry x="220" y="190" width="60" height="30" as="geometry" />
        </mxCell>
        <mxCell id="k3qN99GsgGHmv4in2MPK-24" value="" style="endArrow=classic;html=1;rounded=0;" edge="1" parent="k3qN99GsgGHmv4in2MPK-1">
          <mxGeometry width="50" height="50" relative="1" as="geometry">
            <mxPoint x="353.71" y="165" as="sourcePoint" />
            <mxPoint x="354.21" y="195" as="targetPoint" />
          </mxGeometry>
        </mxCell>
        <mxCell id="k3qN99GsgGHmv4in2MPK-25" value="" style="verticalLabelPosition=bottom;verticalAlign=top;html=1;shape=offPageConnector;rounded=0;size=0.5;" vertex="1" parent="k3qN99GsgGHmv4in2MPK-1">
          <mxGeometry x="339" y="195" width="30" height="30" as="geometry" />
        </mxCell>
        <mxCell id="k3qN99GsgGHmv4in2MPK-26" value="" style="endArrow=classic;html=1;rounded=0;" edge="1" parent="k3qN99GsgGHmv4in2MPK-1">
          <mxGeometry width="50" height="50" relative="1" as="geometry">
            <mxPoint x="405.71" y="195" as="sourcePoint" />
            <mxPoint x="406.21" y="225" as="targetPoint" />
          </mxGeometry>
        </mxCell>
        <mxCell id="k3qN99GsgGHmv4in2MPK-27" value="" style="verticalLabelPosition=bottom;verticalAlign=top;html=1;shape=offPageConnector;rounded=0;size=0.5;" vertex="1" parent="k3qN99GsgGHmv4in2MPK-1">
          <mxGeometry x="391" y="165" width="30" height="30" as="geometry" />
        </mxCell>
        <mxCell id="k3qN99GsgGHmv4in2MPK-28" value="หน้าต่อไป" style="text;html=1;align=center;verticalAlign=middle;resizable=0;points=[];autosize=1;strokeColor=none;fillColor=none;fontFamily=Sarabun;fontSource=https%3A%2F%2Ffonts.googleapis.com%2Fcss%3Ffamily%3DSarabun;" vertex="1" parent="k3qN99GsgGHmv4in2MPK-1">
          <mxGeometry x="345" y="220" width="70" height="30" as="geometry" />
        </mxCell>
        <mxCell id="k3qN99GsgGHmv4in2MPK-29" value="ก" style="text;html=1;align=center;verticalAlign=middle;resizable=0;points=[];autosize=1;strokeColor=none;fillColor=none;fontFamily=Sarabun;fontSource=https%3A%2F%2Ffonts.googleapis.com%2Fcss%3Ffamily%3DSarabun;" vertex="1" parent="k3qN99GsgGHmv4in2MPK-1">
          <mxGeometry x="339" y="190" width="30" height="30" as="geometry" />
        </mxCell>
        <mxCell id="k3qN99GsgGHmv4in2MPK-30" value="ก" style="text;html=1;align=center;verticalAlign=middle;resizable=0;points=[];autosize=1;strokeColor=none;fillColor=none;fontFamily=Sarabun;fontSource=https%3A%2F%2Ffonts.googleapis.com%2Fcss%3Ffamily%3DSarabun;" vertex="1" parent="k3qN99GsgGHmv4in2MPK-1">
          <mxGeometry x="391" y="160" width="30" height="30" as="geometry" />
        </mxCell>
        <mxCell id="k3qN99GsgGHmv4in2MPK-31" value="แสดงผล/รับค่า" style="shape=parallelogram;perimeter=parallelogramPerimeter;whiteSpace=wrap;html=1;fixedSize=1;fontFamily=Sarabun;fontSource=https%3A%2F%2Ffonts.googleapis.com%2Fcss%3Ffamily%3DSarabun;" vertex="1" parent="k3qN99GsgGHmv4in2MPK-1">
          <mxGeometry x="450" y="210" width="120" height="30" as="geometry" />
        </mxCell>
        <mxCell id="k3qN99GsgGHmv4in2MPK-32" value="" style="endArrow=classic;html=1;rounded=0;" edge="1" parent="k3qN99GsgGHmv4in2MPK-1">
          <mxGeometry width="50" height="50" relative="1" as="geometry">
            <mxPoint x="509.71" y="180" as="sourcePoint" />
            <mxPoint x="510.21" y="210" as="targetPoint" />
          </mxGeometry>
        </mxCell>
        <mxCell id="k3qN99GsgGHmv4in2MPK-33" value="" style="endArrow=classic;html=1;rounded=0;" edge="1" parent="k3qN99GsgGHmv4in2MPK-1">
          <mxGeometry width="50" height="50" relative="1" as="geometry">
            <mxPoint x="509.71" y="240" as="sourcePoint" />
            <mxPoint x="510.21" y="270" as="targetPoint" />
          </mxGeometry>
        </mxCell>
        <mxCell id="k3qN99GsgGHmv4in2MPK-34" value="แก้ไขโจทย์ปัญหา" style="swimlane;fontFamily=Sarabun;fontSource=https%3A%2F%2Ffonts.googleapis.com%2Fcss%3Ffamily%3DSarabun;" vertex="1" parent="1">
          <mxGeometry x="60" y="670" width="640" height="1130" as="geometry" />
        </mxCell>
        <mxCell id="k3qN99GsgGHmv4in2MPK-35" value="&lt;font data-font-src=&quot;https://fonts.googleapis.com/css?family=Sarabun&quot; face=&quot;Sarabun&quot;&gt;เริ่มต้น&lt;/font&gt;" style="ellipse;whiteSpace=wrap;html=1;" vertex="1" parent="k3qN99GsgGHmv4in2MPK-34">
          <mxGeometry x="255" y="40" width="130" height="30" as="geometry" />
        </mxCell>
        <mxCell id="k3qN99GsgGHmv4in2MPK-36" value="&lt;font face=&quot;Sarabun&quot;&gt;สิ้นสุด&lt;/font&gt;" style="ellipse;whiteSpace=wrap;html=1;" vertex="1" parent="k3qN99GsgGHmv4in2MPK-34">
          <mxGeometry x="249" y="1054" width="130" height="30" as="geometry" />
        </mxCell>
        <mxCell id="k3qN99GsgGHmv4in2MPK-77" value="" style="rounded=0;whiteSpace=wrap;html=1;" vertex="1" parent="k3qN99GsgGHmv4in2MPK-34">
          <mxGeometry x="190" y="140" width="260" height="80" as="geometry" />
        </mxCell>
        <mxCell id="k3qN99GsgGHmv4in2MPK-78" value="&lt;font style=&quot;font-size: 7px;&quot;&gt;&lt;font style=&quot;vertical-align: inherit;&quot;&gt;&lt;font style=&quot;vertical-align: inherit;&quot;&gt;&lt;font style=&quot;vertical-align: inherit;&quot;&gt;&lt;font style=&quot;vertical-align: inherit;&quot;&gt;เลือกสินค้า&amp;nbsp;&lt;/font&gt;&lt;/font&gt;&lt;/font&gt;&lt;/font&gt;&lt;/font&gt;&lt;div&gt;&lt;font style=&quot;font-size: 7px;&quot;&gt;&lt;font style=&quot;vertical-align: inherit;&quot;&gt;&lt;font style=&quot;vertical-align: inherit;&quot;&gt;&lt;font style=&quot;vertical-align: inherit;&quot;&gt;&lt;font style=&quot;vertical-align: inherit;&quot;&gt;&amp;nbsp;&lt;/font&gt;&lt;/font&gt;&lt;/font&gt;&lt;/font&gt;&lt;span style=&quot;font-family: Sarabun; text-align: left; text-wrap-mode: nowrap;&quot;&gt;- โค้ก กระป๋องละ 10 บาท&lt;/span&gt;&lt;span style=&quot;font-family: Sarabun; text-align: left; white-space: pre;&quot;&gt;&#x9;&lt;/span&gt;&lt;span style=&quot;font-family: Sarabun; text-align: left; white-space: pre;&quot;&gt;&#x9;&lt;/span&gt;&lt;span style=&quot;font-family: Sarabun; text-align: left; white-space: pre;&quot;&gt;&#x9;&lt;/span&gt;&lt;span style=&quot;font-family: Sarabun; text-align: left; white-space: pre;&quot;&gt;&#x9;&lt;/span&gt;&lt;span style=&quot;font-family: Sarabun; text-align: left; text-wrap-mode: nowrap;&quot;&gt;- เมล็ดทานตะวัน 13 บาท&lt;/span&gt;&lt;br style=&quot;font-family: Sarabun; text-align: left; text-wrap-mode: nowrap;&quot;&gt;&lt;span style=&quot;font-family: Sarabun; text-align: left; white-space: pre;&quot;&gt;&#x9;&lt;/span&gt;&lt;span style=&quot;font-family: Sarabun; text-align: left; text-wrap-mode: nowrap;&quot;&gt;- น้ำเขียว กระป๋องละ 12 บาท&lt;/span&gt;&lt;span style=&quot;font-family: Sarabun; text-align: left; white-space: pre;&quot;&gt;&#x9;&lt;/span&gt;&lt;span style=&quot;font-family: Sarabun; text-align: left; white-space: pre;&quot;&gt;&#x9;&lt;/span&gt;&lt;span style=&quot;font-family: Sarabun; text-align: left; white-space: pre;&quot;&gt;&#x9;&lt;/span&gt;&lt;span style=&quot;font-family: Sarabun; text-align: left; text-wrap-mode: nowrap;&quot;&gt;- ถั่วแปบ 20 บาท&lt;/span&gt;&lt;br style=&quot;font-family: Sarabun; text-align: left; text-wrap-mode: nowrap;&quot;&gt;&lt;span style=&quot;font-family: Sarabun; text-align: left; white-space: pre;&quot;&gt;&#x9;&lt;/span&gt;&lt;span style=&quot;font-family: Sarabun; text-align: left; text-wrap-mode: nowrap;&quot;&gt;- อเมริกาโน่ 30 บาท&lt;/span&gt;&lt;span style=&quot;font-family: Sarabun; text-align: left; white-space: pre;&quot;&gt;&#x9;&lt;/span&gt;&lt;span style=&quot;font-family: Sarabun; text-align: left; white-space: pre;&quot;&gt;&#x9;&lt;/span&gt;&lt;span style=&quot;font-family: Sarabun; text-align: left; white-space: pre;&quot;&gt;&#x9;&lt;/span&gt;&lt;span style=&quot;font-family: Sarabun; text-align: left; white-space: pre;&quot;&gt;&#x9;&lt;/span&gt;&lt;span style=&quot;font-family: Sarabun; text-align: left; white-space: pre;&quot;&gt;&#x9;&lt;/span&gt;&lt;span style=&quot;font-family: Sarabun; text-align: left; text-wrap-mode: nowrap;&quot;&gt;- จิ้นส้มหมก 15 บาท&lt;/span&gt;&lt;br style=&quot;font-family: Sarabun; text-align: left; text-wrap-mode: nowrap;&quot;&gt;&lt;span style=&quot;font-family: Sarabun; text-align: left; white-space: pre;&quot;&gt;&#x9;&lt;/span&gt;&lt;span style=&quot;font-family: Sarabun; text-align: left; text-wrap-mode: nowrap;&quot;&gt;- ลาเต้ หวานเจี๊ยบ 35 บาท&lt;/span&gt;&lt;span style=&quot;font-family: Sarabun; text-align: left; white-space: pre;&quot;&gt;&#x9;&lt;/span&gt;&lt;/font&gt;&lt;/div&gt;" style="text;html=1;align=center;verticalAlign=middle;whiteSpace=wrap;rounded=0;" vertex="1" parent="k3qN99GsgGHmv4in2MPK-34">
          <mxGeometry x="207.81" y="130" width="224.38" height="100" as="geometry" />
        </mxCell>
        <mxCell id="k3qN99GsgGHmv4in2MPK-88" value="" style="ellipse;whiteSpace=wrap;html=1;aspect=fixed;shadow=1;" vertex="1" parent="k3qN99GsgGHmv4in2MPK-34">
          <mxGeometry x="305" y="280" width="20" height="20" as="geometry" />
        </mxCell>
        <mxCell id="k3qN99GsgGHmv4in2MPK-89" value="ครบ" style="text;html=1;align=center;verticalAlign=middle;whiteSpace=wrap;rounded=0;" vertex="1" parent="k3qN99GsgGHmv4in2MPK-34">
          <mxGeometry x="284" y="690" width="60" height="30" as="geometry" />
        </mxCell>
        <mxCell id="k3qN99GsgGHmv4in2MPK-90" value="ไม่ครบ" style="text;html=1;align=center;verticalAlign=middle;whiteSpace=wrap;rounded=0;" vertex="1" parent="k3qN99GsgGHmv4in2MPK-34">
          <mxGeometry x="490" y="595" width="60" height="30" as="geometry" />
        </mxCell>
        <mxCell id="k3qN99GsgGHmv4in2MPK-97" value="" style="group" vertex="1" connectable="0" parent="k3qN99GsgGHmv4in2MPK-34">
          <mxGeometry x="260" y="920" width="120" height="60" as="geometry" />
        </mxCell>
        <mxCell id="k3qN99GsgGHmv4in2MPK-93" value="" style="rounded=0;whiteSpace=wrap;html=1;" vertex="1" parent="k3qN99GsgGHmv4in2MPK-97">
          <mxGeometry width="120" height="60" as="geometry" />
        </mxCell>
        <mxCell id="k3qN99GsgGHmv4in2MPK-94" value="รับสินค้า" style="text;html=1;align=center;verticalAlign=middle;whiteSpace=wrap;rounded=0;" vertex="1" parent="k3qN99GsgGHmv4in2MPK-97">
          <mxGeometry x="27.810000000000002" y="20" width="60" height="20" as="geometry" />
        </mxCell>
        <mxCell id="k3qN99GsgGHmv4in2MPK-100" value="" style="group" vertex="1" connectable="0" parent="k3qN99GsgGHmv4in2MPK-34">
          <mxGeometry x="220" y="780" width="190" height="80" as="geometry" />
        </mxCell>
        <mxCell id="k3qN99GsgGHmv4in2MPK-98" value="" style="rounded=0;whiteSpace=wrap;html=1;" vertex="1" parent="k3qN99GsgGHmv4in2MPK-100">
          <mxGeometry x="12.189999999999998" width="170" height="80" as="geometry" />
        </mxCell>
        <mxCell id="k3qN99GsgGHmv4in2MPK-99" value="ตรวจสอบ&lt;div&gt;&lt;font style=&quot;font-size: 10px;&quot;&gt;1.ยอดเงิน&lt;/font&gt;&lt;/div&gt;&lt;div&gt;&lt;font style=&quot;font-size: 10px;&quot;&gt;&amp;nbsp; &amp;nbsp; &amp;nbsp; &amp;nbsp; &amp;nbsp; &amp;nbsp; &amp;nbsp; &amp;nbsp; &amp;nbsp; &amp;nbsp; 2.จำนวน&amp;nbsp; &amp;nbsp; &amp;nbsp;&lt;/font&gt;&lt;span style=&quot;font-size: 10px; background-color: transparent; color: light-dark(rgb(0, 0, 0), rgb(255, 255, 255));&quot;&gt;2.1 ธนบัตร&lt;/span&gt;&lt;/div&gt;&lt;div&gt;&lt;font style=&quot;font-size: 10px;&quot;&gt;&amp;nbsp; &amp;nbsp; &amp;nbsp; &amp;nbsp; &amp;nbsp; &amp;nbsp; &amp;nbsp; &amp;nbsp; &amp;nbsp; &amp;nbsp; &amp;nbsp; &amp;nbsp; &amp;nbsp; &amp;nbsp; &amp;nbsp; &amp;nbsp; &amp;nbsp; &amp;nbsp; &amp;nbsp;2.2 เหรียญ&lt;/font&gt;&lt;/div&gt;" style="text;html=1;align=center;verticalAlign=middle;whiteSpace=wrap;rounded=0;" vertex="1" parent="k3qN99GsgGHmv4in2MPK-100">
          <mxGeometry y="12.5" width="190" height="55" as="geometry" />
        </mxCell>
        <mxCell id="k3qN99GsgGHmv4in2MPK-103" value="" style="endArrow=classic;html=1;rounded=0;entryX=0.5;entryY=0;entryDx=0;entryDy=0;shadow=1;" edge="1" parent="k3qN99GsgGHmv4in2MPK-34" target="k3qN99GsgGHmv4in2MPK-78">
          <mxGeometry width="50" height="50" relative="1" as="geometry">
            <mxPoint x="320" y="80" as="sourcePoint" />
            <mxPoint x="370" y="30" as="targetPoint" />
          </mxGeometry>
        </mxCell>
        <mxCell id="k3qN99GsgGHmv4in2MPK-108" value="" style="endArrow=classic;html=1;rounded=0;entryX=0.5;entryY=0;entryDx=0;entryDy=0;shadow=0;" edge="1" parent="k3qN99GsgGHmv4in2MPK-34" target="k3qN99GsgGHmv4in2MPK-88">
          <mxGeometry width="50" height="50" relative="1" as="geometry">
            <mxPoint x="314.6" y="220" as="sourcePoint" />
            <mxPoint x="314.6" y="270" as="targetPoint" />
            <Array as="points">
              <mxPoint x="314.6" y="255" />
            </Array>
          </mxGeometry>
        </mxCell>
        <mxCell id="k3qN99GsgGHmv4in2MPK-110" value="" style="group" vertex="1" connectable="0" parent="k3qN99GsgGHmv4in2MPK-34">
          <mxGeometry x="274" y="570" width="80" height="80" as="geometry" />
        </mxCell>
        <mxCell id="k3qN99GsgGHmv4in2MPK-84" value="" style="rhombus;whiteSpace=wrap;html=1;" vertex="1" parent="k3qN99GsgGHmv4in2MPK-110">
          <mxGeometry width="80" height="80" as="geometry" />
        </mxCell>
        <mxCell id="k3qN99GsgGHmv4in2MPK-85" value="ครบจำนวนเงิน" style="text;html=1;align=center;verticalAlign=middle;whiteSpace=wrap;rounded=0;" vertex="1" parent="k3qN99GsgGHmv4in2MPK-110">
          <mxGeometry x="10" y="25" width="60" height="35" as="geometry" />
        </mxCell>
        <mxCell id="k3qN99GsgGHmv4in2MPK-111" value="" style="group" vertex="1" connectable="0" parent="k3qN99GsgGHmv4in2MPK-34">
          <mxGeometry x="450" y="439" width="180" height="60" as="geometry" />
        </mxCell>
        <mxCell id="k3qN99GsgGHmv4in2MPK-87" value="" style="shape=process;whiteSpace=wrap;html=1;backgroundOutline=1;" vertex="1" parent="k3qN99GsgGHmv4in2MPK-111">
          <mxGeometry x="30" width="120" height="60" as="geometry" />
        </mxCell>
        <mxCell id="k3qN99GsgGHmv4in2MPK-92" value="จ่ายเงิน&lt;div&gt;&lt;span style=&quot;background-color: transparent; color: light-dark(rgb(0, 0, 0), rgb(255, 255, 255));&quot;&gt;&amp;nbsp; &amp;nbsp;&lt;font style=&quot;font-size: 8px;&quot;&gt;-สแกนจ่าย 1.แอปธนาคาร&lt;/font&gt;&lt;/span&gt;&lt;/div&gt;&lt;div&gt;&lt;span style=&quot;background-color: transparent; color: light-dark(rgb(0, 0, 0), rgb(255, 255, 255));&quot;&gt;&lt;font style=&quot;font-size: 8px;&quot;&gt;&amp;nbsp; &amp;nbsp; &amp;nbsp; &amp;nbsp; &amp;nbsp; &amp;nbsp; &amp;nbsp; 2.Wallet&lt;/font&gt;&lt;/span&gt;&lt;/div&gt;" style="text;html=1;align=center;verticalAlign=middle;whiteSpace=wrap;rounded=0;" vertex="1" parent="k3qN99GsgGHmv4in2MPK-111">
          <mxGeometry y="15" width="180" height="30" as="geometry" />
        </mxCell>
        <mxCell id="k3qN99GsgGHmv4in2MPK-125" value="" style="endArrow=classic;html=1;rounded=0;entryX=1;entryY=0.5;entryDx=0;entryDy=0;" edge="1" parent="k3qN99GsgGHmv4in2MPK-111" target="k3qN99GsgGHmv4in2MPK-123">
          <mxGeometry width="50" height="50" relative="1" as="geometry">
            <mxPoint x="30" y="31" as="sourcePoint" />
            <mxPoint x="80" y="-19" as="targetPoint" />
          </mxGeometry>
        </mxCell>
        <mxCell id="k3qN99GsgGHmv4in2MPK-112" value="" style="group" vertex="1" connectable="0" parent="k3qN99GsgGHmv4in2MPK-34">
          <mxGeometry x="-10" y="439" width="220" height="60" as="geometry" />
        </mxCell>
        <mxCell id="k3qN99GsgGHmv4in2MPK-86" value="" style="shape=process;whiteSpace=wrap;html=1;backgroundOutline=1;" vertex="1" parent="k3qN99GsgGHmv4in2MPK-112">
          <mxGeometry x="50" width="120" height="60" as="geometry" />
        </mxCell>
        <mxCell id="k3qN99GsgGHmv4in2MPK-91" value="จ่ายเงิน&lt;div&gt;&lt;font style=&quot;font-size: 8px;&quot;&gt;-เงินสด&amp;nbsp; 1.แบงค์ 2.เหรียญ&lt;/font&gt;&lt;/div&gt;&lt;div&gt;&lt;br&gt;&lt;/div&gt;" style="text;html=1;align=center;verticalAlign=middle;whiteSpace=wrap;rounded=0;" vertex="1" parent="k3qN99GsgGHmv4in2MPK-112">
          <mxGeometry y="15" width="220" height="30" as="geometry" />
        </mxCell>
        <mxCell id="k3qN99GsgGHmv4in2MPK-114" value="" style="group" vertex="1" connectable="0" parent="k3qN99GsgGHmv4in2MPK-34">
          <mxGeometry x="212.19" y="340" width="220" height="60" as="geometry" />
        </mxCell>
        <mxCell id="k3qN99GsgGHmv4in2MPK-79" value="" style="rounded=0;whiteSpace=wrap;html=1;" vertex="1" parent="k3qN99GsgGHmv4in2MPK-114">
          <mxGeometry y="10" width="220" height="50" as="geometry" />
        </mxCell>
        <mxCell id="k3qN99GsgGHmv4in2MPK-80" value="&lt;div&gt;&lt;br&gt;&lt;/div&gt;รวมยอด&lt;div&gt;1.ยอดสินค้าที่เลือก&lt;/div&gt;&lt;div&gt;2.ราคาทั้งหมดที่ต้องจ่าย&lt;/div&gt;" style="text;html=1;align=center;verticalAlign=middle;whiteSpace=wrap;rounded=0;" vertex="1" parent="k3qN99GsgGHmv4in2MPK-114">
          <mxGeometry x="12.810000000000002" width="190" height="60" as="geometry" />
        </mxCell>
        <mxCell id="k3qN99GsgGHmv4in2MPK-115" value="" style="endArrow=classic;html=1;rounded=0;entryX=0.5;entryY=0;entryDx=0;entryDy=0;shadow=0;" edge="1" parent="k3qN99GsgGHmv4in2MPK-34">
          <mxGeometry width="50" height="50" relative="1" as="geometry">
            <mxPoint x="314.6" y="300" as="sourcePoint" />
            <mxPoint x="314.6" y="350" as="targetPoint" />
            <Array as="points">
              <mxPoint x="314.6" y="335" />
            </Array>
          </mxGeometry>
        </mxCell>
        <mxCell id="k3qN99GsgGHmv4in2MPK-117" value="" style="endArrow=classic;html=1;rounded=0;entryX=0.5;entryY=0;entryDx=0;entryDy=0;shadow=0;" edge="1" parent="k3qN99GsgGHmv4in2MPK-34">
          <mxGeometry width="50" height="50" relative="1" as="geometry">
            <mxPoint x="100" y="380" as="sourcePoint" />
            <mxPoint x="99.72000000000003" y="439" as="targetPoint" />
            <Array as="points">
              <mxPoint x="99.72000000000003" y="424" />
            </Array>
          </mxGeometry>
        </mxCell>
        <mxCell id="k3qN99GsgGHmv4in2MPK-119" value="" style="endArrow=none;html=1;rounded=0;shadow=0;" edge="1" parent="k3qN99GsgGHmv4in2MPK-34">
          <mxGeometry width="50" height="50" relative="1" as="geometry">
            <mxPoint x="100" y="380" as="sourcePoint" />
            <mxPoint x="210" y="380" as="targetPoint" />
          </mxGeometry>
        </mxCell>
        <mxCell id="k3qN99GsgGHmv4in2MPK-120" value="" style="endArrow=none;html=1;rounded=0;shadow=0;" edge="1" parent="k3qN99GsgGHmv4in2MPK-34">
          <mxGeometry width="50" height="50" relative="1" as="geometry">
            <mxPoint x="432.19" y="380" as="sourcePoint" />
            <mxPoint x="540" y="380" as="targetPoint" />
          </mxGeometry>
        </mxCell>
        <mxCell id="k3qN99GsgGHmv4in2MPK-121" value="" style="endArrow=classic;html=1;rounded=0;entryX=0.5;entryY=0;entryDx=0;entryDy=0;shadow=0;" edge="1" parent="k3qN99GsgGHmv4in2MPK-34">
          <mxGeometry width="50" height="50" relative="1" as="geometry">
            <mxPoint x="540" y="380" as="sourcePoint" />
            <mxPoint x="539.72" y="439" as="targetPoint" />
            <Array as="points">
              <mxPoint x="539.72" y="424" />
            </Array>
          </mxGeometry>
        </mxCell>
        <mxCell id="k3qN99GsgGHmv4in2MPK-123" value="" style="ellipse;whiteSpace=wrap;html=1;aspect=fixed;shadow=1;" vertex="1" parent="k3qN99GsgGHmv4in2MPK-34">
          <mxGeometry x="305" y="459" width="20" height="20" as="geometry" />
        </mxCell>
        <mxCell id="k3qN99GsgGHmv4in2MPK-124" value="" style="endArrow=classic;html=1;rounded=0;" edge="1" parent="k3qN99GsgGHmv4in2MPK-34">
          <mxGeometry width="50" height="50" relative="1" as="geometry">
            <mxPoint x="160" y="470" as="sourcePoint" />
            <mxPoint x="300" y="470" as="targetPoint" />
          </mxGeometry>
        </mxCell>
        <mxCell id="k3qN99GsgGHmv4in2MPK-126" value="" style="endArrow=classic;html=1;rounded=0;exitX=0.5;exitY=1;exitDx=0;exitDy=0;entryX=0.5;entryY=0;entryDx=0;entryDy=0;" edge="1" parent="k3qN99GsgGHmv4in2MPK-34" source="k3qN99GsgGHmv4in2MPK-123" target="k3qN99GsgGHmv4in2MPK-84">
          <mxGeometry width="50" height="50" relative="1" as="geometry">
            <mxPoint x="310" y="480" as="sourcePoint" />
            <mxPoint x="320" y="570" as="targetPoint" />
          </mxGeometry>
        </mxCell>
        <mxCell id="k3qN99GsgGHmv4in2MPK-132" value="" style="endArrow=none;html=1;rounded=0;" edge="1" parent="k3qN99GsgGHmv4in2MPK-34">
          <mxGeometry width="50" height="50" relative="1" as="geometry">
            <mxPoint x="550" y="610" as="sourcePoint" />
            <mxPoint x="620" y="610" as="targetPoint" />
          </mxGeometry>
        </mxCell>
        <mxCell id="k3qN99GsgGHmv4in2MPK-136" value="" style="endArrow=classic;html=1;rounded=0;entryX=1;entryY=0.5;entryDx=0;entryDy=0;" edge="1" parent="k3qN99GsgGHmv4in2MPK-34" target="k3qN99GsgGHmv4in2MPK-88">
          <mxGeometry width="50" height="50" relative="1" as="geometry">
            <mxPoint x="620" y="290" as="sourcePoint" />
            <mxPoint x="330" y="290" as="targetPoint" />
          </mxGeometry>
        </mxCell>
        <mxCell id="k3qN99GsgGHmv4in2MPK-137" value="" style="endArrow=none;html=1;rounded=0;" edge="1" parent="k3qN99GsgGHmv4in2MPK-34">
          <mxGeometry width="50" height="50" relative="1" as="geometry">
            <mxPoint x="313.72" y="690" as="sourcePoint" />
            <mxPoint x="313.72" y="650" as="targetPoint" />
          </mxGeometry>
        </mxCell>
        <mxCell id="k3qN99GsgGHmv4in2MPK-140" value="" style="endArrow=classic;html=1;rounded=0;exitX=0.5;exitY=1;exitDx=0;exitDy=0;" edge="1" parent="k3qN99GsgGHmv4in2MPK-34" source="k3qN99GsgGHmv4in2MPK-89">
          <mxGeometry width="50" height="50" relative="1" as="geometry">
            <mxPoint x="400" y="770" as="sourcePoint" />
            <mxPoint x="314" y="780" as="targetPoint" />
          </mxGeometry>
        </mxCell>
        <mxCell id="k3qN99GsgGHmv4in2MPK-141" value="" style="endArrow=classic;html=1;rounded=0;exitX=0.5;exitY=1;exitDx=0;exitDy=0;" edge="1" parent="k3qN99GsgGHmv4in2MPK-34">
          <mxGeometry width="50" height="50" relative="1" as="geometry">
            <mxPoint x="313.59000000000003" y="860" as="sourcePoint" />
            <mxPoint x="314" y="920" as="targetPoint" />
          </mxGeometry>
        </mxCell>
        <mxCell id="k3qN99GsgGHmv4in2MPK-142" value="" style="endArrow=classic;html=1;rounded=0;exitX=0.45;exitY=1.045;exitDx=0;exitDy=0;exitPerimeter=0;" edge="1" parent="k3qN99GsgGHmv4in2MPK-34" source="k3qN99GsgGHmv4in2MPK-93">
          <mxGeometry width="50" height="50" relative="1" as="geometry">
            <mxPoint x="270" y="1094" as="sourcePoint" />
            <mxPoint x="314" y="1050" as="targetPoint" />
          </mxGeometry>
        </mxCell>
        <mxCell id="k3qN99GsgGHmv4in2MPK-37" value="&lt;font data-font-src=&quot;https://fonts.googleapis.com/css?family=Sarabun&quot; face=&quot;Sarabun&quot;&gt;โจทย์ปัญหา&lt;/font&gt;" style="swimlane;whiteSpace=wrap;html=1;" vertex="1" parent="1">
          <mxGeometry x="40" y="340" width="640" height="240" as="geometry" />
        </mxCell>
        <mxCell id="k3qN99GsgGHmv4in2MPK-38" value="&lt;font data-font-src=&quot;https://fonts.googleapis.com/css?family=Sarabun&quot; face=&quot;Sarabun&quot; style=&quot;font-size: 14px;&quot;&gt;จงเขียน Flowchart เพื่อแสดงขั้นตอนการทำงาน ของเครื่องขายน้ำอัตโนมัติที่ชื่อว่า &quot;ตะพาบลอย&quot;&lt;br&gt;โดยจะต้องมีสินค้าดังนี้&lt;br&gt;&lt;u&gt;ประเภทน้ำ&lt;span style=&quot;white-space: pre;&quot;&gt;&#x9;&lt;/span&gt;&lt;span style=&quot;white-space: pre;&quot;&gt;&#x9;&lt;/span&gt;&lt;span style=&quot;white-space: pre;&quot;&gt;&#x9;&lt;/span&gt;&lt;span style=&quot;white-space: pre;&quot;&gt;&#x9;&lt;/span&gt;&lt;span style=&quot;white-space: pre;&quot;&gt;&#x9;&lt;/span&gt;&lt;span style=&quot;white-space: pre;&quot;&gt;&#x9;&lt;span style=&quot;white-space: pre;&quot;&gt;&#x9;&lt;/span&gt;ข&lt;/span&gt;นม&lt;/u&gt;&lt;br&gt;&lt;span style=&quot;white-space: pre;&quot;&gt;&#x9;&lt;/span&gt;- โค้ก กระป๋องละ 10 บาท&lt;span style=&quot;white-space: pre;&quot;&gt;&#x9;&lt;/span&gt;&lt;span style=&quot;white-space: pre;&quot;&gt;&#x9;&lt;/span&gt;&lt;span style=&quot;white-space: pre;&quot;&gt;&#x9;&lt;/span&gt;&lt;span style=&quot;white-space: pre;&quot;&gt;&#x9;&lt;/span&gt;- เมล็ดทานตะวัน 13 บาท&lt;br&gt;&lt;span style=&quot;white-space: pre;&quot;&gt;&#x9;&lt;/span&gt;- น้ำเขียว กระป๋องละ 12 บาท&lt;span style=&quot;white-space: pre;&quot;&gt;&#x9;&lt;/span&gt;&lt;span style=&quot;white-space: pre;&quot;&gt;&#x9;&lt;/span&gt;&lt;span style=&quot;white-space: pre;&quot;&gt;&#x9;&lt;/span&gt;- ถั่วแปบ 20 บาท&lt;br&gt;&lt;span style=&quot;white-space: pre;&quot;&gt;&#x9;&lt;/span&gt;- อเมริกาโน่ 30 บาท&lt;span style=&quot;white-space: pre;&quot;&gt;&#x9;&lt;/span&gt;&lt;span style=&quot;white-space: pre;&quot;&gt;&#x9;&lt;/span&gt;&lt;span style=&quot;white-space: pre;&quot;&gt;&#x9;&lt;/span&gt;&lt;span style=&quot;white-space: pre;&quot;&gt;&#x9;&lt;/span&gt;&lt;span style=&quot;white-space: pre;&quot;&gt;&#x9;&lt;/span&gt;- จิ้นส้มหมก 15 บาท&lt;br&gt;&lt;span style=&quot;white-space: pre;&quot;&gt;&#x9;&lt;/span&gt;- ลาเต้ หวานเจี๊ยบ 35 บาท&lt;span style=&quot;white-space: pre;&quot;&gt;&#x9;&lt;/span&gt;&lt;br&gt;&lt;br&gt;&lt;u&gt;สิ่งที่ระบบควรจะทำได้&lt;/u&gt;&lt;br&gt;&lt;span style=&quot;white-space: pre;&quot;&gt;&#x9;&lt;/span&gt;- ลูกค้าเลือกสินค้า, ระบบจะต้องรวมยอดขาย และรวมรายการสินค้าทั้งหมดที่ลูกค้าเลือก&lt;br&gt;&lt;span style=&quot;white-space: pre;&quot;&gt;&#x9;&lt;/span&gt;- สรุปยอดว่าเหลือเงินในตู้อีกเท่าไหร่ เหลือเหรียญอะไรบ้าง? ธนบัตรอะไรบ้าง? อย่างละเท่าไหร่?&lt;br&gt;&lt;br&gt;&lt;br&gt;&lt;/font&gt;" style="text;html=1;align=left;verticalAlign=middle;resizable=0;points=[];autosize=1;strokeColor=none;fillColor=none;fontSize=14;" vertex="1" parent="k3qN99GsgGHmv4in2MPK-37">
          <mxGeometry x="30" y="30" width="580" height="240" as="geometry" />
        </mxCell>
        <mxCell id="k3qN99GsgGHmv4in2MPK-131" value="" style="endArrow=none;html=1;rounded=0;" edge="1" parent="1" target="k3qN99GsgGHmv4in2MPK-90">
          <mxGeometry width="50" height="50" relative="1" as="geometry">
            <mxPoint x="420" y="1280" as="sourcePoint" />
            <mxPoint x="510" y="1240" as="targetPoint" />
          </mxGeometry>
        </mxCell>
        <mxCell id="k3qN99GsgGHmv4in2MPK-133" value="" style="endArrow=none;html=1;rounded=0;" edge="1" parent="1">
          <mxGeometry width="50" height="50" relative="1" as="geometry">
            <mxPoint x="680" y="1280" as="sourcePoint" />
            <mxPoint x="680" y="960" as="targetPoint" />
          </mxGeometry>
        </mxCell>
      </root>
    </mxGraphModel>
  </diagram>
</mxfile>
